<?xml version="1.0" encoding="UTF-8" standalone="no"?>
<svg xmlns:svg="http://www.w3.org/2000/svg" xmlns="http://www.w3.org/2000/svg" id="logo_art" viewBox="0 0 337.57791 310.9917" version="1.1" width="337.57791" height="310.9917">
    <g id="g44" transform="translate(-124.20869,-124.00831)">
        <path id="path46" class="cls-1" d="M 461.17,301.83 442.26,243.71 404.84,128.43 a 6.47,6.47 0 0 0 -12.27,0 L 355.15,243.64 H 230.82 L 193.4,128.43 a 6.46,6.46 0 0 0 -12.26,0 l -37.36,115.21 -18.91,58.19 a 12.88,12.88 0 0 0 4.66,14.39 L 293,435 456.44,316.22 a 12.9,12.9 0 0 0 4.73,-14.39" style="fill:#fc6d26"></path>
    </g>
    <g id="g48" transform="translate(-124.20869,-124.00831)">
        <path id="path50" class="cls-2" d="m 293,434.91 v 0 L 355.16,243.63 H 230.87 Z" style="fill:#e24329"></path>
    </g>
    <g id="g56" transform="translate(-124.20869,-124.00831)">
        <path id="path58" class="cls-1" d="M 293,434.91 230.82,243.63 h -87 z" style="fill:#fc6d26"></path>
    </g>
    <g id="g64" transform="translate(-124.20869,-124.00831)">
        <path id="path66" class="cls-3" d="m 143.75,243.69 v 0 l -18.91,58.12 a 12.88,12.88 0 0 0 4.66,14.39 L 293,435 Z" style="fill:#fca326"></path>
    </g>
    <g id="g72" transform="translate(-124.20869,-124.00831)">
        <path id="path74" class="cls-2" d="m 143.78,243.69 h 87.11 L 193.4,128.49 a 6.47,6.47 0 0 0 -12.27,0 z" style="fill:#e24329"></path>
    </g>
    <g id="g76" transform="translate(-124.20869,-124.00831)">
        <path id="path78" class="cls-1" d="M 293,434.91 355.16,243.63 H 442.3 Z" style="fill:#fc6d26"></path>
    </g>
    <g id="g80" transform="translate(-124.20869,-124.00831)">
        <path id="path82" class="cls-3" d="m 442.24,243.69 v 0 l 18.91,58.12 a 12.85,12.85 0 0 1 -4.66,14.39 L 293,434.91 442.2,243.69 Z" style="fill:#fca326"></path>
    </g>
    <g id="g84" transform="translate(-124.20869,-124.00831)">
        <path id="path86" class="cls-2" d="m 442.28,243.69 h -87.1 l 37.42,-115.2 a 6.46,6.46 0 0 1 12.26,0 z" style="fill:#e24329"></path>
    </g>
</svg>